<?xml version="1.0" encoding="UTF-8" standalone="no"?>
<svg xmlns:dc="http://purl.org/dc/elements/1.1/" xmlns:cc="http://creativecommons.org/ns#" xmlns:rdf="http://www.w3.org/1999/02/22-rdf-syntax-ns#" xmlns:svg="http://www.w3.org/2000/svg" xmlns="http://www.w3.org/2000/svg" xmlns:sodipodi="http://sodipodi.sourceforge.net/DTD/sodipodi-0.dtd" xmlns:inkscape="http://www.inkscape.org/namespaces/inkscape" width="16px" height="16px" viewBox="0 0 16 16" id="svg2" version="1.1" inkscape:version="0.91 r13725" sodipodi:docname="88.svg">
  <defs id="defs4"/>
  <sodipodi:namedview id="base" pagecolor="#ffffff" bordercolor="#666666" borderopacity="1.0" inkscape:pageopacity="0.0" inkscape:pageshadow="2" inkscape:zoom="16" inkscape:cx="25.071549" inkscape:cy="11.708296" inkscape:document-units="px" inkscape:current-layer="layer1" showgrid="true" units="px" inkscape:window-width="1366" inkscape:window-height="715" inkscape:window-x="-8" inkscape:window-y="-8" inkscape:window-maximized="1">
    <inkscape:grid type="xygrid" id="grid3358"/>
  </sodipodi:namedview>
  
  <g inkscape:label="Layer 1" inkscape:groupmode="layer" id="layer1" transform="translate(0,-1036.3622)">
    <path style="color:#ffffff;font-style:normal;font-variant:normal;font-weight:normal;font-stretch:normal;font-size:medium;line-height:normal;font-family:sans-serif;text-indent:0;text-align:start;text-decoration:none;text-decoration-line:none;text-decoration-style:solid;text-decoration-color:#000000;letter-spacing:normal;word-spacing:normal;text-transform:none;direction:ltr;block-progression:tb;writing-mode:lr-tb;baseline-shift:baseline;text-anchor:start;white-space:normal;clip-rule:nonzero;display:inline;overflow:visible;visibility:visible;opacity:1;isolation:auto;mix-blend-mode:normal;color-interpolation:sRGB;color-interpolation-filters:linearRGB;solid-color:#000000;solid-opacity:1;fill:#000000;fill-opacity:1;fill-rule:nonzero;stroke:none;stroke-width:1px;stroke-linecap:butt;stroke-linejoin:miter;stroke-miterlimit:4;stroke-dasharray:none;stroke-dashoffset:0;stroke-opacity:1;color-rendering:auto;image-rendering:auto;shape-rendering:auto;text-rendering:auto;enable-background:accumulate" d="M 7.9941406 1 C 6.6193511 1 5.4941406 2.1252 5.4941406 3.5 C 5.4941406 3.5207199 5.4994918 3.5399434 5.5 3.5605469 C 3.4352817 4.5101164 1.9941406 6.5842949 1.9941406 9 C 1.9941406 9.4787281 2.0675256 9.9389814 2.1738281 10.386719 C 1.4689908 10.830108 0.99414062 11.610545 0.99414062 12.5 C 0.99414062 13.8748 2.1193511 15 3.4941406 15 C 4.1606813 15 4.7654271 14.731928 5.2148438 14.302734 C 6.0479519 14.74009 6.9900874 15 7.9941406 15 C 8.9981981 15 9.9421095 14.741984 10.775391 14.304688 C 11.224611 14.732762 11.828584 15 12.494141 15 C 13.86893 15 14.994141 13.8748 14.994141 12.5 C 14.994141 11.612099 14.521148 10.832478 13.818359 10.388672 C 13.924794 9.941126 13.994141 9.4787929 13.994141 9 C 13.994141 6.5826019 12.555016 4.5052389 10.488281 3.5566406 C 10.488727 3.5373464 10.494141 3.5193961 10.494141 3.5 C 10.494141 2.1252 9.3689302 1 7.9941406 1 z M 7.9941406 2 C 8.8284901 2 9.4941406 2.6657 9.4941406 3.5 C 9.4941406 4.3344 8.8284901 5 7.9941406 5 C 7.1597912 5 6.4941406 4.3344 6.4941406 3.5 C 6.4941406 2.6657 7.1597912 2 7.9941406 2 z M 5.7363281 4.5507812 C 6.1363719 5.4015827 6.9962448 6 7.9941406 6 C 8.9914269 6 9.8515843 5.4027009 10.251953 4.5527344 C 11.874506 5.3778725 12.994141 7.0495149 12.994141 9 C 12.994141 9.358063 12.946026 9.702711 12.875 10.039062 C 12.74983 10.019561 12.62455 10 12.494141 10 C 11.119351 10 9.9941406 11.1252 9.9941406 12.5 C 9.9941406 12.847738 10.067459 13.176884 10.197266 13.478516 C 9.5317018 13.806899 8.7887215 14 7.9941406 14 C 7.1996182 14 6.4561816 13.808725 5.7910156 13.480469 C 5.9212525 13.178414 5.9941406 12.848348 5.9941406 12.5 C 5.9941406 11.1252 4.8689302 10 3.4941406 10 C 3.3643933 10 3.2397998 10.019755 3.1152344 10.039062 C 3.0437876 9.7026723 2.9941406 9.3583587 2.9941406 9 C 2.9941406 7.0496816 4.1138358 5.3757337 5.7363281 4.5507812 z M 3.4941406 11 C 4.3284901 11 4.9941406 11.6657 4.9941406 12.5 C 4.9941406 13.3344 4.3284901 14 3.4941406 14 C 2.6597912 14 1.9941406 13.3344 1.9941406 12.5 C 1.9941406 11.6657 2.6597912 11 3.4941406 11 z M 12.494141 11 C 13.32849 11 13.994141 11.6657 13.994141 12.5 C 13.994141 13.3344 13.32849 14 12.494141 14 C 11.659791 14 10.994141 13.3344 10.994141 12.5 C 10.994141 11.6657 11.659791 11 12.494141 11 z " transform="translate(0,1036.3622)" id="path3745"/>
  </g>

	
	
	<metadata>
		<rdf:RDF xmlns:rdf="http://www.w3.org/1999/02/22-rdf-syntax-ns#" xmlns:rdfs="http://www.w3.org/2000/01/rdf-schema#" xmlns:dc="http://purl.org/dc/elements/1.1/">
			<rdf:Description about="https://iconscout.com/legal#licenses" dc:title="Share, Sharing, Connect, Connecting, Interface, UI" dc:description="Share, Sharing, Connect, Connecting, Interface, UI" dc:publisher="Iconscout" dc:date="2016-12-14" dc:format="image/svg+xml" dc:language="en">
				<dc:creator>
					<rdf:Bag>
						<rdf:li>Chamestudio</rdf:li>
					</rdf:Bag>
				</dc:creator>
			</rdf:Description>
		</rdf:RDF>
    </metadata></svg>
